<?xml version="1.0" standalone="no"?><!DOCTYPE svg PUBLIC "-//W3C//DTD SVG 1.1//EN" "http://www.w3.org/Graphics/SVG/1.1/DTD/svg11.dtd"><svg t="1736470747213" class="icon" viewBox="0 0 1024 1024" version="1.1" xmlns="http://www.w3.org/2000/svg" p-id="5503" xmlns:xlink="http://www.w3.org/1999/xlink" width="200" height="200"><path d="M512 959.804632C265.061053 959.804632 64.195368 758.938947 64.195368 512 64.195368 265.061053 264.980211 64.195368 512 64.195368c246.938947 0 447.804632 200.862316 447.804632 447.804632 0 246.938947-200.862316 447.804632-447.804632 447.804632M512 0C229.611789 0 0 229.729684 0 512s229.692632 512 512 512 512-229.692632 512-512S794.270316 0 512 0" fill="#1296db" p-id="5504"></path><path d="M243.705263 761.347368c11.274105 29.288421 42.064842 48.485053 80.741053 50.34779a145.098105 145.098105 0 0 0 106.812631-41.401263c27.402105-27.429053 37.335579-62.416842 26.021053-91.745684-11.237053-29.288421-42.031158-48.485053-80.707368-50.34779a145.098105 145.098105 0 0 0-106.768843 41.364211c-27.402105 27.466105-37.338947 62.453895-26.101894 91.782736z m329.687579-68.985263c11.317895 29.328842 42.071579 48.522105 80.74779 50.384842a145.098105 145.098105 0 0 0 106.809263-41.36421c27.402105-27.466105 37.335579-62.453895 26.061473-91.782737-11.277474-29.288421-42.031158-48.485053-80.707368-50.347789a145.098105 145.098105 0 0 0-106.812632 41.401263c-27.398737 27.429053-37.335579 62.416842-26.058105 91.745684l-0.040421-0.037053z" fill="#1296db" p-id="5505"></path><path d="M711.545263 208.279579l-253.419789 81.047579C432.114526 297.229474 414.315789 321.320421 414.315789 348.651789V704h48.720843v-288.087579c0-5.803789 3.614316-11.018105 9.431579-12.520421l253.65221-81.360842a15.211789 15.211789 0 0 1 3.654737-0.592842c6.403368 0 13.082947 5.173895 13.082947 13.113263v299.698526H791.578947V267.328a62.113684 62.113684 0 0 0-25.189052-49.835789 61.423158 61.423158 0 0 0-54.844632-9.212632z" fill="#1296db" p-id="5506"></path><path d="M136.782726 195.076689m17.229433-18.476304l0 0q17.229432-18.476304 35.705736-1.246871l682.391496 636.340364q18.476304 17.229432 1.246872 35.705737l0 0q-17.229432 18.476304-35.705737 1.246871l-682.391496-636.340364q-18.476304-17.229432-1.246871-35.705737Z" fill="#1296db" p-id="5507"></path></svg>